<svg xmlns="http://www.w3.org/2000/svg" xmlns:xlink="http://www.w3.org/1999/xlink"
viewBox="0 0 161.4 115.1">
  <defs>
    <style>
      .cls-1{fill:url(#linear-gradient);}
    </style>
    <linearGradient id="linear-gradient" x1="308.48" y1="179.09" x2="403.23"
    y2="74.51" gradientUnits="userSpaceOnUse">
      <stop offset="0" stop-color="#5ec285" />
      <stop offset="0.51" stop-color="#c6d47c" />
      <stop offset="0.56" stop-color="#cbcc7f" />
      <stop offset="1" stop-color="#ef9395" />
    </linearGradient>
  </defs>
  <g id="OBJECTS">
    <path class="cls-1" d="M436.1,131.3a157.3,157.3,0,0,0-20.3-1.9h-7.4a139.7,139.7,0,0,0,4.2-20.5,154.3,154.3,0,0,0,1.5-23.4V82.2l-3.1,1.2a176.4,176.4,0,0,0-21,10.2,144.6,144.6,0,0,0-12.6,8c-1.5-3.5-3.1-7.2-4.9-10.9a166.8,166.8,0,0,0-11.8-20.2l-1.9-2.7-2,2.7A174.8,174.8,0,0,0,345,90.7c-1.9,3.7-3.5,7.4-5,10.9a144.6,144.6,0,0,0-12.6-8,168.4,168.4,0,0,0-21-10.2l-3.1-1.2v3.3a171.5,171.5,0,0,0,1.5,23.4,139.7,139.7,0,0,0,4.2,20.5h-7.4a159.8,159.8,0,0,0-20.3,1.9l-3.2.6,1.6,2.9a145.1,145.1,0,0,0,11.7,16.7c9.7,12,19.5,20.4,29.1,24.9s17.8,6.5,25,6.5a25.9,25.9,0,0,0,13.3-3.4,21.8,21.8,0,0,0,9.6,3.2,20.6,20.6,0,0,0,3.6.2c7.2,0,15.6-2.2,25-6.5s19.5-12.9,29.2-24.9a151.5,151.5,0,0,0,11.6-16.7l1.7-2.9ZM409.4,89.1c-.1,7.2-1,24.4-6,40.5a81.2,81.2,0,0,0-19.2,3.5v-.2c0-8-1.7-17-5.2-26.7A165.9,165.9,0,0,1,409.4,89.1Zm-71.6,43.8a72.5,72.5,0,0,1,4.5-23.6,73.4,73.4,0,0,1,13.5,13.8,87.8,87.8,0,0,0-8.6,16.5,73,73,0,0,0-7.9-4.1l-1.5-.7Zm28.8,30.8a22.2,22.2,0,0,0-3.9-10.5l-.9-1.4a48.1,48.1,0,0,1,5.7-4.9C369.2,153.6,368.9,159.3,366.6,163.7Zm-7.8-7.9c3.2,4.7,4,9.4,2.3,13.7a13.4,13.4,0,0,1-2.4,1.2,11.5,11.5,0,0,1-2.5-1.2c-1.6-4.3-.9-9,2.3-13.7l.2-.2C358.7,155.7,358.8,155.7,358.8,155.8Zm-4.2-2.6a22.2,22.2,0,0,0-3.9,10.5c-2.2-4.4-2.5-10.1-.9-16.8a59.5,59.5,0,0,1,5.8,4.9ZM348,168c-5.5-5.2-9-14.9-9.9-27.9a78.1,78.1,0,0,1,7.6,4.1C342.7,154.7,344.2,162.7,348,168Zm25.2-14.7a38.4,38.4,0,0,0-1.5-9.1,76.4,76.4,0,0,1,7.6-4.1c-1,13-4.5,22.6-9.9,27.9C372.2,164.1,373.5,159,373.2,153.3Zm6.3-18.5-1.5.7c-2.8,1.3-5.4,2.7-7.9,4.1a77,77,0,0,0-8.6-16.5,74,74,0,0,1,13.6-13.8c2.6,7.7,4.4,15.8,4.4,23.6Zm-13.4,7.4a41.5,41.5,0,0,0-7.4,6.1,42.3,42.3,0,0,0-7.5-6.1,80,80,0,0,1,7.5-14.9A85.6,85.6,0,0,1,366.1,142.2ZM341.8,168c-6.5-3.8-13.2-10.7-19.5-20.1a64.5,64.5,0,0,1-6.7-13.4,68.8,68.8,0,0,1,17.6,3.6C333.9,152.2,337.2,161.8,341.8,168Zm35.3-2.2c4-6.7,6.4-16.2,7-27.7a68.8,68.8,0,0,1,17.6-3.6,64.5,64.5,0,0,1-6.7,13.4c-6.3,9.4-12.9,16.2-19.4,20.1ZM358.7,76.1a166,166,0,0,1,14.6,28.5A83.2,83.2,0,0,0,358.7,119,87.6,87.6,0,0,0,344,104.6,164.8,164.8,0,0,1,358.7,76.1Zm-50.8,13a160,160,0,0,1,30.4,17.1c-3.4,9.7-5.2,18.7-5.2,26.7v.2a81.2,81.2,0,0,0-19.2-3.5C308.9,113.5,308.1,96.3,307.9,89.1Zm40.6,89c-6.9.7-16-1.3-26.1-6-17.5-8.1-32-28.9-36.9-36.7a138.7,138.7,0,0,1,25-1.2,68.6,68.6,0,0,0,7.9,16.3c7.7,11.5,16.1,19.5,24.2,23.3a25.5,25.5,0,0,0,10.4,2.5l1,.3A21,21,0,0,1,348.5,178.1Zm46.5-6c-10.2,4.7-19.2,6.7-26.2,6a21,21,0,0,1-5.5-1.5l1.1-.3a25.1,25.1,0,0,0,10.3-2.5c8.1-3.8,16.5-11.8,24.2-23.3a72.8,72.8,0,0,0,8-16.3H412a162.4,162.4,0,0,1,19.8,1.3C426.9,143.2,412.4,164,395,172.1Z"
    transform="translate(-278 -67.8)" />
  </g>
</svg>